<svg xmlns="http://www.w3.org/2000/svg" xmlns:xlink="http://www.w3.org/1999/xlink" width="461pt" height="586pt" viewBox="0 0 461.38 586"><g id="graph0" class="graph" transform="scale(1 1) rotate(0) translate(4 582)"><polygon fill="#fff" stroke="none" points="-4 4 -4 -582 457.38 -582 457.38 4 -4 4"/><g id="node1" class="node"><title>volume.VoxelSize</title><g id="a_node1"><a xlink:title="→ volume.Volume------------------------------width height depth"><polygon fill="#0f0" fill-opacity=".188" stroke="#0f0" stroke-opacity=".188" points="118.38 -223 5.38 -223 5.38 -188 118.38 -188 118.38 -223"/><text x="61.88" y="-202.4" fill="#006400" font-family="arial" font-size="12" text-anchor="middle">volume.VoxelSize</text></a></g></g><g id="node11" class="node"><title>bossdb.VolumeUpload</title><g id="a_node11"><a xlink:title="→ volume.VoxelSize→ bossdb.VolumeUploadTask"><ellipse cx="216.88" cy="-68" fill="red" fill-opacity=".125" stroke="red" stroke-opacity=".125" rx="13" ry="13"/><text x="216.88" y="-64.9" fill="#7f0000" fill-opacity=".627" font-family="arial" font-size="12" text-anchor="middle">bossdb.VolumeUpload</text></a></g></g><g id="edge1" class="edge"><title>volume.VoxelSize-&gt;bossdb.VolumeUpload</title><path fill="none" stroke="#000" stroke-opacity=".251" stroke-width=".75" d="M70.66,-187.89C81.4,-168.84 101.11,-137.59 124.88,-117 149.79,-95.41 186.1,-80.16 204.78,-73.22"/></g><g id="node2" class="node"><title>volume.SegmentationTask</title><g id="a_node2"><a xlink:title="→ volume.Volume→ volume.SegmentationParamSet------------------------------segmentation_output_dir=&quot;&quot; task_mode=&quot;load&quot;"><polygon fill="#0f0" fill-opacity=".188" stroke="#0f0" stroke-opacity=".188" points="281.88 -294 123.88 -294 123.88 -259 281.88 -259 281.88 -294"/><text x="202.88" y="-273.4" fill="#006400" font-family="arial" font-size="12" text-anchor="middle">volume.SegmentationTask</text></a></g></g><g id="node6" class="node"><title>volume.Segmentation</title><g id="a_node6"><a xlink:title="→ volume.SegmentationTask"><ellipse cx="202.88" cy="-205.5" fill="red" fill-opacity=".125" stroke="red" stroke-opacity=".125" rx="13" ry="13"/><text x="202.88" y="-202.4" fill="#7f0000" fill-opacity=".627" font-family="arial" font-size="12" text-anchor="middle">volume.Segmentation</text></a></g></g><g id="edge2" class="edge"><title>volume.SegmentationTask-&gt;volume.Segmentation</title><path fill="none" stroke="#000" stroke-opacity=".251" stroke-width="2" d="M202.88,-258.8C202.88,-246.35 202.88,-229.66 202.88,-218.51"/></g><g id="node3" class="node"><title>volume.Volume</title><g id="a_node3"><a xlink:title="→ scan.Scan------------------------------px_width px_height px_depth depth_mean_brightness=null volume_file_path"><ellipse cx="61.88" cy="-347.5" fill="#00007f" fill-opacity=".251" stroke="#00007f" stroke-opacity=".251" rx="61.75" ry="17.5"/><text x="61.88" y="-344.4" fill="#00007f" fill-opacity=".627" font-family="arial" font-size="12" text-anchor="middle">volume.Volume</text></a></g></g><g id="edge3" class="edge"><title>volume.Volume-&gt;volume.VoxelSize</title><path fill="none" stroke="#000" stroke-opacity=".251" stroke-width="2" d="M61.88,-329.89C61.88,-302.95 61.88,-250.02 61.88,-223.09"/></g><g id="edge4" class="edge"><title>volume.Volume-&gt;volume.SegmentationTask</title><path fill="none" stroke="#000" stroke-opacity=".251" stroke-width=".75" d="M91.43,-332.04C114.12,-320.93 145.48,-305.59 169.15,-294"/></g><g id="node4" class="node"><title>volume.Segmentation.Mask</title><g id="a_node4"><a xlink:title="→ volume.Segmentationmask ------------------------------mask_npix mask_center_x mask_center_y mask_center_z mask_xpix mask_ypix mask_zpix mask_weights"><polygon fill="none" stroke="none" points="271.88 -144 133.88 -144 133.88 -125 271.88 -125 271.88 -144"/><text x="141.88" y="-133" font-family="arial" font-size="10" text-anchor="start" text-decoration="underline">volume.Segmentation.Mask</text></a></g></g><g id="node5" class="node"><title>bossdb.VolumeUpload.WebAddress</title><g id="a_node5"><a xlink:title="→ bossdb.VolumeUploadupload_type=&quot;image&quot; web_address_type=&quot;bossdb&quot; ------------------------------web_address"><polygon fill="none" stroke="none" points="303.38 -19 130.38 -19 130.38 0 303.38 0 303.38 -19"/><text x="138.38" y="-8" font-family="arial" font-size="10" text-anchor="start" text-decoration="underline">bossdb.VolumeUpload.WebAddress</text></a></g></g><g id="edge5" class="edge"><title>volume.Segmentation-&gt;volume.Segmentation.Mask</title><path fill="none" stroke="#000" stroke-opacity=".251" stroke-width=".75" d="M202.88,-192.48C202.88,-178.74 202.88,-156.56 202.88,-144.32"/></g><g id="node12" class="node"><title>bossdb.VolumeUploadTask</title><g id="a_node12"><a xlink:title="→ volume.Segmentation------------------------------collection_name experiment_name channel_name"><polygon fill="#0f0" fill-opacity=".188" stroke="#0f0" stroke-opacity=".188" points="453.38 -152 290.38 -152 290.38 -117 453.38 -117 453.38 -152"/><text x="371.88" y="-131.4" fill="#006400" font-family="arial" font-size="12" text-anchor="middle">bossdb.VolumeUploadTask</text></a></g></g><g id="edge6" class="edge"><title>volume.Segmentation-&gt;bossdb.VolumeUploadTask</title><path fill="none" stroke="#000" stroke-opacity=".251" stroke-width="2" d="M214.76,-199.65C238.58,-189.92 293.13,-167.65 331.23,-152.1"/></g><g id="node7" class="node"><title>subject.Subject</title><g id="a_node7"><a xlink:title="subject ------------------------------subject_nickname=&quot;&quot; sex subject_birth_date subject_description=&quot;&quot;"><polygon fill="#0f0" fill-opacity=".188" stroke="#0f0" stroke-opacity=".188" points="110.88 -578 12.88 -578 12.88 -543 110.88 -543 110.88 -578"/><text x="20.88" y="-558.4" fill="#006400" font-family="arial" font-size="12" text-anchor="start" text-decoration="underline">subject.Subject</text></a></g></g><g id="node9" class="node"><title>session.Session</title><g id="a_node9"><a xlink:title="→ subject.Subjectsession_id ------------------------------session_datetime"><polygon fill="#0f0" fill-opacity=".188" stroke="#0f0" stroke-opacity=".188" points="113.88 -507 9.88 -507 9.88 -472 113.88 -472 113.88 -507"/><text x="17.88" y="-487.4" fill="#006400" font-family="arial" font-size="12" text-anchor="start" text-decoration="underline">session.Session</text></a></g></g><g id="edge7" class="edge"><title>subject.Subject-&gt;session.Session</title><path fill="none" stroke="#000" stroke-opacity=".251" stroke-width=".75" d="M61.88,-542.8C61.88,-531.95 61.88,-517.87 61.88,-507.05"/></g><g id="node8" class="node"><title>scan.Scan</title><g id="a_node8"><a xlink:title="→ session.Sessionscan_id ------------------------------→ [nullable] `kabilar_zstack2_reference`.`#device`→ scan.AcquisitionSoftwarescan_notes=&quot;&quot;"><polygon fill="#0f0" fill-opacity=".188" stroke="#0f0" stroke-opacity=".188" points="98.38 -436 25.38 -436 25.38 -401 98.38 -401 98.38 -436"/><text x="33.38" y="-416.4" fill="#006400" font-family="arial" font-size="12" text-anchor="start" text-decoration="underline">scan.Scan</text></a></g></g><g id="edge8" class="edge"><title>scan.Scan-&gt;volume.Volume</title><path fill="none" stroke="#000" stroke-opacity=".251" stroke-width="2" d="M61.88,-400.8C61.88,-389.95 61.88,-375.87 61.88,-365.05"/></g><g id="edge9" class="edge"><title>session.Session-&gt;scan.Scan</title><path fill="none" stroke="#000" stroke-opacity=".251" stroke-width=".75" d="M61.88,-471.8C61.88,-460.95 61.88,-446.87 61.88,-436.05"/></g><g id="node10" class="node"><title>volume.SegmentationParamSet</title><g id="a_node10"><a xlink:title="paramset_idx ------------------------------segmentation_method paramset_desc=&quot;&quot; params paramset_hash UNIQUE INDEX (paramset_hash)"><polygon fill="#000" fill-opacity=".125" stroke="none" points="296.38 -365 141.38 -365 141.38 -330 296.38 -330 296.38 -365"/><text x="149.38" y="-346" font-family="arial" font-size="10" text-anchor="start" text-decoration="underline">volume.SegmentationParamSet</text></a></g></g><g id="edge10" class="edge"><title>volume.SegmentationParamSet-&gt;volume.SegmentationTask</title><path fill="none" stroke="#000" stroke-opacity=".251" stroke-width=".75" d="M215,-329.8C212.49,-318.95 209.22,-304.87 206.71,-294.05"/></g><g id="edge11" class="edge"><title>bossdb.VolumeUpload-&gt;bossdb.VolumeUpload.WebAddress</title><path fill="none" stroke="#000" stroke-opacity=".251" stroke-width=".75" d="M216.88,-54.74C216.88,-43.97 216.88,-28.56 216.88,-19.06"/></g><g id="edge12" class="edge"><title>bossdb.VolumeUploadTask-&gt;bossdb.VolumeUpload</title><path fill="none" stroke="#000" stroke-opacity=".251" stroke-width="2" d="M331.96,-116.89C297.69,-102.63 250.5,-82.99 228.74,-73.94"/></g></g></svg>